<svg width="20" height="18" viewBox="0 0 20 18" fill="none" xmlns="http://www.w3.org/2000/svg">
<path fill-rule="evenodd" clip-rule="evenodd" d="M1.80625 2.20641C2.70639 1.30655 3.92707 0.801036 5.19985 0.801036C6.47264 0.801036 7.69332 1.30655 8.59345 2.20641L9.99985 3.61161L11.4063 2.20641C11.849 1.74796 12.3787 1.38229 12.9643 1.13072C13.5499 0.879161 14.1798 0.746747 14.8171 0.741209C15.4545 0.735671 16.0865 0.857119 16.6764 1.09847C17.2663 1.33982 17.8023 1.69623 18.253 2.14691C18.7036 2.5976 19.0601 3.13353 19.3014 3.72343C19.5427 4.31333 19.6642 4.9454 19.6587 5.58274C19.6531 6.22008 19.5207 6.84993 19.2691 7.43555C19.0176 8.02117 18.6519 8.55083 18.1935 8.99361L9.99985 17.1884L1.80625 8.99361C0.906393 8.09348 0.400879 6.8728 0.400879 5.60001C0.400879 4.32722 0.906393 3.10654 1.80625 2.20641Z" fill="#F87171"/>
</svg>
