<svg width="20" height="18" viewBox="0 0 20 18" fill="none" xmlns="http://www.w3.org/2000/svg">
<path fill-rule="evenodd" clip-rule="evenodd" d="M1.80638 2.20659C2.70651 1.30673 3.92719 0.801219 5.19998 0.801219C6.47276 0.801219 7.69344 1.30673 8.59358 2.20659L9.99998 3.61179L11.4064 2.20659C11.8492 1.74815 12.3788 1.38247 12.9644 1.13091C13.5501 0.879344 14.1799 0.74693 14.8173 0.741392C15.4546 0.735854 16.0867 0.857302 16.6766 1.09865C17.2665 1.34 17.8024 1.69641 18.2531 2.1471C18.7038 2.59778 19.0602 3.13371 19.3015 3.72361C19.5429 4.31352 19.6643 4.94558 19.6588 5.58292C19.6532 6.22026 19.5208 6.85012 19.2693 7.43574C19.0177 8.02136 18.652 8.55101 18.1936 8.99379L9.99998 17.1886L1.80638 8.99379C0.906515 8.09366 0.401001 6.87298 0.401001 5.60019C0.401001 4.32741 0.906515 3.10673 1.80638 2.20659Z" fill="#F87171"/>
</svg>
