<svg width="46" height="46" viewBox="0 0 46 46" fill="none" xmlns="http://www.w3.org/2000/svg">
<circle cx="23" cy="23" r="11.5" fill="white"/>
<path fill-rule="evenodd" clip-rule="evenodd" d="M23.4 41.8C28.28 41.8 32.9601 39.8614 36.4108 36.4108C39.8614 32.9601 41.8 28.28 41.8 23.4C41.8 18.52 39.8614 13.8399 36.4108 10.3892C32.9601 6.93857 28.28 5 23.4 5C18.52 5 13.8399 6.93857 10.3892 10.3892C6.93857 13.8399 5 18.52 5 23.4C5 28.28 6.93857 32.9601 10.3892 36.4108C13.8399 39.8614 18.52 41.8 23.4 41.8V41.8ZM25.7 16.5C25.7 15.89 25.4577 15.305 25.0263 14.8737C24.595 14.4423 24.01 14.2 23.4 14.2C22.79 14.2 22.205 14.4423 21.7737 14.8737C21.3423 15.305 21.1 15.89 21.1 16.5V21.1H16.5C15.89 21.1 15.305 21.3423 14.8737 21.7737C14.4423 22.205 14.2 22.79 14.2 23.4C14.2 24.01 14.4423 24.595 14.8737 25.0263C15.305 25.4577 15.89 25.7 16.5 25.7H21.1V30.3C21.1 30.91 21.3423 31.495 21.7737 31.9263C22.205 32.3577 22.79 32.6 23.4 32.6C24.01 32.6 24.595 32.3577 25.0263 31.9263C25.4577 31.495 25.7 30.91 25.7 30.3V25.7H30.3C30.91 25.7 31.495 25.4577 31.9263 25.0263C32.3577 24.595 32.6 24.01 32.6 23.4C32.6 22.79 32.3577 22.205 31.9263 21.7737C31.495 21.3423 30.91 21.1 30.3 21.1H25.7V16.5Z" fill="#3B82F6"/>
</svg>
