<svg width="134" height="73" viewBox="0 0 134 73" fill="none" xmlns="http://www.w3.org/2000/svg">
<path d="M4.55809 13.6745H9.11623V22.7908H4.55809V13.6745Z" fill="#89CAFF"/>
<path d="M124.209 13.6745H128.767V22.7908H124.209V13.6745Z" fill="#89CAFF"/>
<path d="M13.6745 4.55811H18.2326V9.11624H13.6745V4.55811Z" fill="#89CAFF"/>
<path d="M115.093 4.55811H119.651V9.11624H115.093V4.55811Z" fill="#89CAFF"/>
<path d="M13.6745 63.814H18.2326V68.3721H13.6745V63.814Z" fill="#89CAFF"/>
<path d="M115.093 63.814H119.651V68.3721H115.093V63.814Z" fill="#89CAFF"/>
<path d="M9.11618 9.11621H13.6743V13.6744H9.11618V9.11621Z" fill="#89CAFF"/>
<path d="M119.651 9.11621H124.209V13.6744H119.651V9.11621Z" fill="#89CAFF"/>
<path d="M0 22.7907H4.55814V50.1395H0V22.7907Z" fill="#89CAFF"/>
<path d="M128.767 22.7907H133.326V50.1395H128.767V22.7907Z" fill="#89CAFF"/>
<path d="M4.55809 50.1395H9.11623V59.2557H4.55809V50.1395Z" fill="#89CAFF"/>
<path d="M124.209 50.1395H128.767V59.2557H124.209V50.1395Z" fill="#89CAFF"/>
<path d="M9.11618 59.2559H13.6743V63.814H9.11618V59.2559Z" fill="#89CAFF"/>
<path d="M119.651 59.2559H124.209V63.814H119.651V59.2559Z" fill="#89CAFF"/>
<path d="M18.2326 68.3721H115.093V72.9302H18.2326V68.3721Z" fill="#89CAFF"/>
<path d="M18.2326 0H115.093V4.55814H18.2326V0Z" fill="#89CAFF"/>
</svg>
