<svg width="134" height="73" viewBox="0 0 134 73" fill="none" xmlns="http://www.w3.org/2000/svg">
<path d="M53.9835 19.96C53.9768 20.2267 53.9202 20.68 53.8135 21.32C53.7068 21.9533 53.5835 22.4967 53.4435 22.95H52.4235C52.4368 22.9167 52.5002 22.6533 52.6135 22.16C52.7268 21.66 52.8068 21.2067 52.8535 20.8H47.1635V19.96H53.9835ZM54.9535 24.27H46.1535V23.42H49.4635V21.8H50.4935V23.42H54.9535V24.27ZM54.1035 28.2H47.2735V25.15H53.9135V25.99H48.3235V27.36H54.1035V28.2ZM67.3788 24.57H66.3788V19.6H67.3788V24.57ZM64.5688 22.04C64.5688 22.6333 64.3422 23.1433 63.8888 23.57C63.4355 23.99 62.8522 24.2 62.1388 24.2C61.4322 24.2 60.8488 23.99 60.3888 23.57C59.9288 23.1433 59.6988 22.6333 59.6988 22.04C59.6988 21.4467 59.9288 20.94 60.3888 20.52C60.8488 20.1 61.4322 19.89 62.1388 19.89C62.8522 19.89 63.4355 20.1 63.8888 20.52C64.3422 20.94 64.5688 21.4467 64.5688 22.04ZM63.5388 22.04C63.5388 21.6867 63.4188 21.3833 63.1788 21.13C62.9388 20.87 62.5922 20.74 62.1388 20.74C61.6922 20.74 61.3455 20.87 61.0988 21.13C60.8522 21.3833 60.7288 21.6867 60.7288 22.04C60.7288 22.4 60.8522 22.71 61.0988 22.97C61.3455 23.2233 61.6922 23.35 62.1388 23.35C62.5922 23.35 62.9388 23.2233 63.1788 22.97C63.4188 22.71 63.5388 22.4 63.5388 22.04ZM68.1288 27.74L67.4888 28.4C67.1622 28.22 66.8522 27.9733 66.5588 27.66C66.2722 27.3467 66.0488 27.02 65.8888 26.68C65.7355 27.0533 65.4788 27.4033 65.1188 27.73C64.7588 28.0633 64.4688 28.2867 64.2488 28.4C63.9622 28.2533 63.6655 28.0233 63.3588 27.71C63.0588 27.4033 62.8055 27.06 62.5988 26.68C62.4788 27 62.2588 27.3167 61.9388 27.63C61.6255 27.9433 61.2922 28.2 60.9388 28.4L60.2888 27.74C61.0222 27.3667 61.5055 26.92 61.7388 26.4C61.9788 25.88 62.0988 25.4967 62.0988 25.25V25H63.0888V25.25C63.0888 25.4767 63.1855 25.8167 63.3788 26.27C63.5788 26.7233 63.8655 27.0833 64.2388 27.35C64.6388 27.05 64.9288 26.6833 65.1088 26.25C65.2955 25.81 65.3888 25.4767 65.3888 25.25V25H66.3788V25.25C66.3788 25.4967 66.4988 25.8867 66.7388 26.42C66.9788 26.9467 67.4422 27.3867 68.1288 27.74ZM76.358 22.51C76.358 23.17 76.0547 23.72 75.448 24.16C74.848 24.5933 74.048 24.81 73.048 24.81C72.048 24.81 71.2447 24.59 70.638 24.15C70.038 23.71 69.738 23.1633 69.738 22.51C69.738 21.8567 70.0414 21.31 70.648 20.87C71.2547 20.43 72.0547 20.21 73.048 20.21C74.0614 20.21 74.8647 20.43 75.458 20.87C76.058 21.3033 76.358 21.85 76.358 22.51ZM77.448 27.14H68.648V26.3H77.448V27.14ZM75.298 22.51C75.298 22.05 75.0747 21.7 74.628 21.46C74.1814 21.2133 73.6547 21.09 73.048 21.09C72.448 21.09 71.9214 21.2133 71.468 21.46C71.0214 21.7 70.798 22.05 70.798 22.51C70.798 22.9567 71.0214 23.3067 71.468 23.56C71.9147 23.8067 72.4414 23.93 73.048 23.93C73.6547 23.93 74.1814 23.8067 74.628 23.56C75.0747 23.3067 75.298 22.9567 75.298 22.51ZM82.0173 23.6V21.03H79.7373V23.6H82.0173ZM83.0173 21.05H85.0573V19.6H86.0573V25.97H85.0573V23.48H83.0173V24.44H78.7373V20.19H83.0173V21.05ZM83.0173 22.69H85.0573V21.84H83.0173V22.69ZM86.2573 28.2H79.7573V25.39H80.7673V27.36H86.2573V28.2ZM39.473 39.15C39.3463 39.17 38.993 39.2133 38.413 39.28C37.8396 39.3467 37.2096 39.3833 36.523 39.39L34.333 39.41V33.6H38.633V34.45H35.333V38.55L36.923 38.54C37.3696 38.5267 37.873 38.4933 38.433 38.44C38.9996 38.3867 39.3463 38.3467 39.473 38.32V39.15ZM40.163 32.6H41.163V36.12H42.493V37H41.163V41.4H40.163V32.6ZM50.8522 34.27C50.8522 34.7767 50.5689 35.19 50.0022 35.51C49.4422 35.83 48.6055 35.99 47.4922 35.99C46.3855 35.99 45.5489 35.83 44.9822 35.51C44.4155 35.19 44.1322 34.7767 44.1322 34.27C44.1322 33.7633 44.4155 33.35 44.9822 33.03C45.5489 32.71 46.3855 32.55 47.4922 32.55C48.6055 32.55 49.4422 32.71 50.0022 33.03C50.5689 33.35 50.8522 33.7633 50.8522 34.27ZM51.8922 37.58H43.0922V36.74H51.8922V37.58ZM50.7522 41.3H44.2322V38.36H50.7522V41.3ZM49.8022 34.28C49.8022 33.9867 49.5922 33.7533 49.1722 33.58C48.7589 33.4 48.1989 33.31 47.4922 33.31C46.7789 33.31 46.2122 33.3967 45.7922 33.57C45.3789 33.7433 45.1722 33.9767 45.1722 34.27C45.1722 34.5567 45.3822 34.79 45.8022 34.97C46.2222 35.15 46.7855 35.24 47.4922 35.24C48.1855 35.24 48.7422 35.15 49.1622 34.97C49.5889 34.79 49.8022 34.56 49.8022 34.28ZM49.7522 40.46V39.2H45.2322V40.46H49.7522ZM62.4675 41H61.4975V36.81H60.4375V35.88H61.4975V32.8H62.4675V41ZM64.3275 41.4H63.3575V32.6H64.3275V41.4ZM60.8875 39.38C60.6808 39.4067 60.3708 39.4367 59.9575 39.47C59.5442 39.5033 59.0942 39.5267 58.6075 39.54L56.7875 39.55V36.09H59.1075V34.41H56.7875V33.57H60.0975V36.93H57.7875V38.71L58.9375 38.7C59.2642 38.6933 59.6208 38.6767 60.0075 38.65C60.3942 38.6233 60.6875 38.5967 60.8875 38.57V39.38ZM68.8467 36.2V35.06H67.1467V36.2H68.8467ZM73.8967 41.3H67.2667V39.16H72.6367V38.51H67.2667V37.73H73.6867V39.88H68.3167V40.52H73.8967V41.3ZM69.8367 34.49H70.8767V32.75H71.8467V37.23H70.8767V35.38H69.8367V37.03H66.1467V32.98H67.1467V34.22H68.8467V32.98H69.8367V34.49ZM73.7167 37.23H72.7467V32.6H73.7167V37.23ZM80.3259 36.51C80.3259 37.49 80.1126 38.2767 79.6859 38.87C79.2593 39.4633 78.6793 39.76 77.9459 39.76C77.2193 39.76 76.6359 39.4667 76.1959 38.88C75.7626 38.2867 75.5459 37.4967 75.5459 36.51C75.5459 35.5167 75.7626 34.7267 76.1959 34.14C76.6359 33.5533 77.2193 33.26 77.9459 33.26C78.6793 33.26 79.2593 33.5533 79.6859 34.14C80.1126 34.7267 80.3259 35.5167 80.3259 36.51ZM83.0759 41.4H82.0759V32.6H83.0759V41.4ZM79.3459 36.5C79.3459 35.8667 79.2259 35.3167 78.9859 34.85C78.7459 34.3767 78.4026 34.14 77.9559 34.14C77.5093 34.14 77.1593 34.3767 76.9059 34.85C76.6593 35.3233 76.5359 35.8733 76.5359 36.5C76.5359 37.14 76.6593 37.6967 76.9059 38.17C77.1593 38.6367 77.5093 38.87 77.9559 38.87C78.4026 38.87 78.7459 38.6367 78.9859 38.17C79.2259 37.6967 79.3459 37.14 79.3459 36.5ZM93.3152 38.34H91.9552V41.4H90.9552V32.6H91.9552V34.8H93.3152V35.69H91.9552V37.44H93.3152V38.34ZM89.4252 36.51C89.4252 37.49 89.2085 38.2767 88.7752 38.87C88.3485 39.4633 87.7685 39.76 87.0352 39.76C86.3085 39.76 85.7285 39.4667 85.2952 38.88C84.8618 38.2867 84.6452 37.4967 84.6452 36.51C84.6452 35.5167 84.8618 34.7267 85.2952 34.14C85.7285 33.5533 86.3085 33.26 87.0352 33.26C87.7685 33.26 88.3485 33.5533 88.7752 34.14C89.2085 34.7267 89.4252 35.5167 89.4252 36.51ZM88.4352 36.5C88.4352 35.8667 88.3152 35.3167 88.0752 34.85C87.8418 34.3767 87.4985 34.14 87.0452 34.14C86.5985 34.14 86.2518 34.3767 86.0052 34.85C85.7585 35.3233 85.6352 35.8733 85.6352 36.5C85.6352 37.14 85.7585 37.6967 86.0052 38.17C86.2518 38.6367 86.5985 38.87 87.0452 38.87C87.4985 38.87 87.8418 38.6367 88.0752 38.17C88.3152 37.6967 88.4352 37.14 88.4352 36.5ZM94.7844 39.13L94.4644 36.52V32.69H95.5644V36.52L95.2544 39.13H94.7844ZM95.6644 40.11V41.37H94.3644V40.11H95.6644ZM97.8457 39.13L97.5257 36.52V32.69H98.6257V36.52L98.3157 39.13H97.8457ZM98.7257 40.11V41.37H97.4257V40.11H98.7257ZM43.1623 46.68H40.3623V45.87H43.1623V46.68ZM44.4123 48.1H39.1323V47.28H44.4123V48.1ZM45.3323 45.6H46.3323V49.3H47.6023V50.19H46.3323V54.4H45.3323V45.6ZM44.9723 52.89C44.579 52.9367 44.0823 52.9733 43.4823 53C42.889 53.0333 42.1957 53.0567 41.4023 53.07L38.7123 53.08V52.23H41.3123V51.33C40.7857 51.2567 40.3623 51.0967 40.0423 50.85C39.729 50.5967 39.5723 50.2933 39.5723 49.94C39.5723 49.54 39.7823 49.2033 40.2023 48.93C40.6223 48.6567 41.1557 48.52 41.8023 48.52C42.4557 48.52 42.9923 48.66 43.4123 48.94C43.839 49.2133 44.0523 49.55 44.0523 49.95C44.0523 50.2833 43.899 50.5767 43.5923 50.83C43.2857 51.0767 42.879 51.2367 42.3723 51.31V52.22C42.8723 52.22 43.3423 52.2033 43.7823 52.17C44.2223 52.13 44.619 52.0867 44.9723 52.04V52.89ZM43.0623 49.95C43.0623 49.75 42.9457 49.5833 42.7123 49.45C42.479 49.31 42.1757 49.24 41.8023 49.24C41.4423 49.24 41.1457 49.31 40.9123 49.45C40.6857 49.5833 40.5723 49.7467 40.5723 49.94C40.5723 50.14 40.6857 50.3033 40.9123 50.43C41.1457 50.5567 41.4457 50.62 41.8123 50.62C42.1857 50.62 42.4857 50.5567 42.7123 50.43C42.9457 50.3033 43.0623 50.1433 43.0623 49.95ZM53.3416 49.51C53.3416 50.49 53.1282 51.2767 52.7016 51.87C52.2749 52.4633 51.6949 52.76 50.9616 52.76C50.2349 52.76 49.6516 52.4667 49.2116 51.88C48.7782 51.2867 48.5616 50.4967 48.5616 49.51C48.5616 48.5167 48.7782 47.7267 49.2116 47.14C49.6516 46.5533 50.2349 46.26 50.9616 46.26C51.6949 46.26 52.2749 46.5533 52.7016 47.14C53.1282 47.7267 53.3416 48.5167 53.3416 49.51ZM56.0916 54.4H55.0916V45.6H56.0916V54.4ZM52.3616 49.5C52.3616 48.8667 52.2416 48.3167 52.0016 47.85C51.7616 47.3767 51.4182 47.14 50.9716 47.14C50.5249 47.14 50.1749 47.3767 49.9216 47.85C49.6749 48.3233 49.5516 48.8733 49.5516 49.5C49.5516 50.14 49.6749 50.6967 49.9216 51.17C50.1749 51.6367 50.5249 51.87 50.9716 51.87C51.4182 51.87 51.7616 51.6367 52.0016 51.17C52.2416 50.6967 52.3616 50.14 52.3616 49.5ZM65.4008 52.82C65.4008 53.3133 65.1141 53.7267 64.5408 54.06C63.9741 54.3933 63.1408 54.56 62.0408 54.56C60.9474 54.56 60.1141 54.3933 59.5408 54.06C58.9674 53.7267 58.6808 53.3133 58.6808 52.82C58.6808 52.3267 58.9674 51.9133 59.5408 51.58C60.1141 51.24 60.9474 51.07 62.0408 51.07C63.1408 51.07 63.9741 51.24 64.5408 51.58C65.1141 51.9133 65.4008 52.3267 65.4008 52.82ZM59.7608 52.82C59.7608 53.1 59.9674 53.33 60.3808 53.51C60.8008 53.6967 61.3541 53.79 62.0408 53.79C62.7208 53.79 63.2708 53.7 63.6908 53.52C64.1108 53.34 64.3208 53.1067 64.3208 52.82C64.3208 52.5267 64.1108 52.2933 63.6908 52.12C63.2708 51.94 62.7208 51.85 62.0408 51.85C61.3541 51.85 60.8008 51.94 60.3808 52.12C59.9674 52.3 59.7608 52.5333 59.7608 52.82ZM65.2908 51.03H64.2908V45.6H65.2908V51.03ZM63.4208 50.2C63.1541 50.24 62.7808 50.28 62.3008 50.32C61.8208 50.3533 61.3641 50.3767 60.9308 50.39C60.3708 50.41 59.7608 50.42 59.1008 50.42C58.4474 50.42 58.0974 50.42 58.0508 50.42V46.1H62.5208V46.92H59.0508V47.84H62.4208V48.67H59.0508V49.59L60.8608 49.58C61.3141 49.5667 61.7874 49.5433 62.2808 49.51C62.7741 49.4767 63.1541 49.4367 63.4208 49.39V50.2ZM71.23 46.87H68.33V46.03H71.23V46.87ZM72.52 48.51H67.03V47.65H72.52V48.51ZM73.49 45.6H74.49V49.17H75.82V50.08H74.49V54.4H73.49V45.6ZM72.21 51.15C72.21 51.67 71.9867 52.1433 71.54 52.57C71.0933 52.99 70.5133 53.2 69.8 53.2C69.08 53.2 68.4933 52.9933 68.04 52.58C67.5867 52.16 67.36 51.6833 67.36 51.15C67.36 50.61 67.5867 50.14 68.04 49.74C68.4933 49.3333 69.0833 49.13 69.81 49.13C70.5167 49.13 71.0933 49.33 71.54 49.73C71.9867 50.13 72.21 50.6033 72.21 51.15ZM71.19 51.16C71.19 50.84 71.0667 50.5633 70.82 50.33C70.58 50.09 70.2433 49.97 69.81 49.97C69.3633 49.97 69.0167 50.09 68.77 50.33C68.53 50.57 68.41 50.8467 68.41 51.16C68.41 51.4667 68.53 51.74 68.77 51.98C69.0167 52.22 69.3633 52.34 69.81 52.34C70.2433 52.34 70.58 52.22 70.82 51.98C71.0667 51.74 71.19 51.4667 71.19 51.16ZM82.1492 51.88L81.4592 52.65C81.0859 52.3967 80.6626 52.0333 80.1892 51.56C79.7159 51.0867 79.4126 50.6267 79.2792 50.18C79.1192 50.68 78.8026 51.1933 78.3292 51.72C77.8626 52.24 77.4026 52.64 76.9492 52.92L76.1292 52.24C77.2959 51.5667 78.0192 50.81 78.2992 49.97C78.5859 49.1233 78.7292 48.4867 78.7292 48.06V47.4H76.7392V46.53H81.8392V47.4H79.8392V48.06C79.8392 48.4733 79.9692 49.07 80.2292 49.85C80.4959 50.63 81.1359 51.3067 82.1492 51.88ZM82.9592 45.6H83.9592V49.07H85.2692V49.98H83.9592V54.4H82.9592V45.6ZM94.3984 50.64H90.2984V54.4H89.2784V50.64H85.5984V49.8H91.7984C91.8918 49.5067 91.9918 49.07 92.0984 48.49C92.2118 47.9033 92.2818 47.3833 92.3084 46.93H86.5584V46.09H93.4484C93.4484 46.27 93.3818 46.8167 93.2484 47.73C93.1151 48.6367 92.9818 49.3267 92.8484 49.8H94.3984V50.64Z" fill="#4B5563"/>
<path d="M4.55811 13.6746H9.11624V22.7908H4.55811V13.6746Z" fill="#89CAFF"/>
<path d="M124.209 13.6746H128.767V22.7908H124.209V13.6746Z" fill="#89CAFF"/>
<path d="M13.6745 4.55811H18.2326V9.11624H13.6745V4.55811Z" fill="#89CAFF"/>
<path d="M115.093 4.55811H119.651V9.11624H115.093V4.55811Z" fill="#89CAFF"/>
<path d="M13.6745 63.814H18.2326V68.3721H13.6745V63.814Z" fill="#89CAFF"/>
<path d="M115.093 63.814H119.651V68.3721H115.093V63.814Z" fill="#89CAFF"/>
<path d="M9.11618 9.11621H13.6743V13.6744H9.11618V9.11621Z" fill="#89CAFF"/>
<path d="M119.651 9.11621H124.209V13.6744H119.651V9.11621Z" fill="#89CAFF"/>
<path d="M0 22.7906H4.55814V50.1395H0V22.7906Z" fill="#89CAFF"/>
<path d="M128.767 22.7906H133.326V50.1395H128.767V22.7906Z" fill="#89CAFF"/>
<path d="M4.55811 50.1395H9.11624V59.2557H4.55811V50.1395Z" fill="#89CAFF"/>
<path d="M124.209 50.1395H128.767V59.2557H124.209V50.1395Z" fill="#89CAFF"/>
<path d="M9.11618 59.2559H13.6743V63.814H9.11618V59.2559Z" fill="#89CAFF"/>
<path d="M119.651 59.2559H124.209V63.814H119.651V59.2559Z" fill="#89CAFF"/>
<path d="M18.2326 68.3721H115.093V72.9302H18.2326V68.3721Z" fill="#89CAFF"/>
<path d="M18.2326 0H115.093V4.55814H18.2326V0Z" fill="#89CAFF"/>
</svg>
