<svg width="20" height="24" viewBox="0 0 20 24" fill="none" xmlns="http://www.w3.org/2000/svg">
<path d="M10 0.800049C7.7722 0.800049 5.63563 1.68505 4.06032 3.26035C2.48502 4.83566 1.60002 6.97223 1.60002 9.20005V14.2204L0.610219 15.2102C0.414486 15.406 0.281197 15.6555 0.227202 15.927C0.173208 16.1985 0.200932 16.48 0.30687 16.7358C0.412808 16.9915 0.592203 17.2102 0.822377 17.364C1.05255 17.5178 1.32317 17.6 1.60002 17.6H18.4C18.6769 17.6 18.9475 17.5178 19.1777 17.364C19.4078 17.2102 19.5872 16.9915 19.6932 16.7358C19.7991 16.48 19.8268 16.1985 19.7728 15.927C19.7188 15.6555 19.5856 15.406 19.3898 15.2102L18.4 14.2204V9.20005C18.4 6.97223 17.515 4.83566 15.9397 3.26035C14.3644 1.68505 12.2278 0.800049 10 0.800049ZM10 23.2C8.88611 23.2 7.81782 22.7576 7.03017 21.9699C6.24252 21.1822 5.80002 20.114 5.80002 19H14.2C14.2 20.114 13.7575 21.1822 12.9699 21.9699C12.1822 22.7576 11.1139 23.2 10 23.2Z" fill="#374151"/>
</svg>
