<svg width="46" height="46" viewBox="0 0 46 46" fill="none" xmlns="http://www.w3.org/2000/svg">
<circle cx="23" cy="23" r="18" fill="#3B82F6"/>
<path d="M23 14C21.1813 14 19.4371 14.7112 18.1511 15.977C16.8651 17.2429 16.1426 18.9598 16.1426 20.75V24.7843L15.3346 25.5796C15.1748 25.737 15.066 25.9374 15.0219 26.1556C14.9779 26.3738 15.0005 26.5999 15.087 26.8055C15.1735 27.011 15.3199 27.1867 15.5078 27.3103C15.6957 27.4339 15.9166 27.5 16.1426 27.5H29.8574C30.0834 27.5 30.3043 27.4339 30.4922 27.3103C30.6801 27.1867 30.8265 27.011 30.913 26.8055C30.9995 26.5999 31.0221 26.3738 30.9781 26.1556C30.934 25.9374 30.8252 25.737 30.6654 25.5796L29.8574 24.7843V20.75C29.8574 18.9598 29.1349 17.2429 27.8489 15.977C26.5629 14.7112 24.8187 14 23 14ZM23 32C22.0907 32 21.2186 31.6444 20.5756 31.0115C19.9326 30.3786 19.5713 29.5201 19.5713 28.625H26.4287C26.4287 29.5201 26.0674 30.3786 25.4244 31.0115C24.7814 31.6444 23.9093 32 23 32Z" fill="white"/>
</svg>
