<svg width="60" height="60" viewBox="0 0 60 60" fill="none" xmlns="http://www.w3.org/2000/svg">
<path d="M12.5059 7.12751C12.2684 6.5982 12.6557 6 13.2358 6H24.4052C24.7203 6 25.0061 6.18499 25.1351 6.47249L32.4941 22.8725C32.7316 23.4018 32.3443 24 31.7642 24H20.5948C20.2797 24 19.9939 23.815 19.8649 23.5275L12.5059 7.12751Z" fill="#CA8A04"/>
<path d="M47.4941 7.12751C47.7316 6.5982 47.3443 6 46.7642 6H35.5948C35.2797 6 34.9939 6.18499 34.8649 6.47249L27.5059 22.8725C27.2684 23.4018 27.6557 24 28.2358 24H39.4052C39.7203 24 40.0061 23.815 40.1351 23.5275L47.4941 7.12751Z" fill="#854D0E"/>
<path fill-rule="evenodd" clip-rule="evenodd" d="M48 36C48 40.7739 46.1036 45.3523 42.7279 48.7279C39.3523 52.1036 34.7739 54 30 54C25.2261 54 20.6477 52.1036 17.2721 48.7279C13.8964 45.3523 12 40.7739 12 36C12 31.2261 13.8964 26.6477 17.2721 23.2721C20.6477 19.8964 25.2261 18 30 18C34.7739 18 39.3523 19.8964 42.7279 23.2721C46.1036 26.6477 48 31.2261 48 36Z" fill="#6B7280"/>
<path fill-rule="evenodd" clip-rule="evenodd" d="M45 36C45 39.9782 43.4196 43.7936 40.6066 46.6066C37.7936 49.4196 33.9782 51 30 51C26.0218 51 22.2064 49.4196 19.3934 46.6066C16.5804 43.7936 15 39.9782 15 36C15 32.0218 16.5804 28.2064 19.3934 25.3934C22.2064 22.5804 26.0218 21 30 21C33.9782 21 37.7936 22.5804 40.6066 25.3934C43.4196 28.2064 45 32.0218 45 36Z" fill="#9CA3AF"/>
<path d="M27.7089 33.808L26.5089 33.652C26.7369 32.692 26.7969 31.96 26.8209 31.396H24.2649V30.4H28.0329V30.892C28.0329 31.528 28.0329 32.524 27.7089 33.808ZM22.8969 33.832L21.6849 33.64C22.0689 32.644 22.1769 31.936 22.2009 31.396H20.0889V30.4H23.4129V30.88C23.4129 31.492 23.4129 32.536 22.8969 33.832ZM21.7569 38.908V39.856H28.1769V40.828H20.5329V37.996H26.5809V37.144H20.5209V36.184H27.8049V38.908H21.7569ZM24.9609 34.372H29.0649V35.368H19.2729V34.372H23.7369V32.668H24.9609V34.372ZM39.588 33.256V34.252H32.136V30.46H39.516V31.456H33.36V33.256H39.588ZM35.784 39.964C37.368 39.964 38.268 39.616 38.268 38.944C38.268 38.284 37.368 37.924 35.784 37.924C34.2 37.924 33.312 38.284 33.312 38.944C33.312 39.616 34.2 39.964 35.784 39.964ZM35.784 36.976C38.112 36.976 39.516 37.696 39.516 38.944C39.516 40.204 38.112 40.924 35.784 40.924C33.468 40.924 32.052 40.204 32.052 38.944C32.052 37.696 33.468 36.976 35.784 36.976ZM30.924 35.152H40.716V36.172H30.924V35.152Z" fill="white"/>
</svg>
