<svg width="38" height="38" viewBox="0 0 38 38" fill="none" xmlns="http://www.w3.org/2000/svg">
<path d="M8.10591 4.9275C7.8684 4.39819 8.25564 3.79999 8.8358 3.79999H15.2667C15.5818 3.79999 15.8676 3.98497 15.9966 4.27247L20.394 14.0725C20.6316 14.6018 20.2443 15.2 19.6642 15.2H13.2332C12.9181 15.2 12.6324 15.015 12.5033 14.7275L8.10591 4.9275Z" fill="#EF4444"/>
<path d="M29.8941 4.9275C30.1316 4.39819 29.7444 3.79999 29.1642 3.79999H22.7333C22.4182 3.79999 22.1324 3.98497 22.0034 4.27247L17.606 14.0725C17.3684 14.6018 17.7557 15.2 18.3358 15.2H24.7668C25.0819 15.2 25.3676 15.015 25.4967 14.7275L29.8941 4.9275Z" fill="#B91C1C"/>
<path fill-rule="evenodd" clip-rule="evenodd" d="M30.4 22.8C30.4 25.8235 29.1989 28.7231 27.061 30.861C24.9231 32.999 22.0234 34.2 19 34.2C15.9765 34.2 13.0769 32.999 10.939 30.861C8.80104 28.7231 7.59998 25.8235 7.59998 22.8C7.59998 19.7766 8.80104 16.8769 10.939 14.739C13.0769 12.6011 15.9765 11.4 19 11.4C22.0234 11.4 24.9231 12.6011 27.061 14.739C29.1989 16.8769 30.4 19.7766 30.4 22.8Z" fill="#EAB308"/>
<path fill-rule="evenodd" clip-rule="evenodd" d="M28.5 22.8C28.5 25.3195 27.4991 27.7359 25.7175 29.5175C23.9359 31.2991 21.5196 32.3 19 32.3C16.4804 32.3 14.0641 31.2991 12.2825 29.5175C10.5009 27.7359 9.5 25.3195 9.5 22.8C9.5 20.2804 10.5009 17.8641 12.2825 16.0825C14.0641 14.3009 16.4804 13.3 19 13.3C21.5196 13.3 23.9359 14.3009 25.7175 16.0825C27.4991 17.8641 28.5 20.2804 28.5 22.8Z" fill="#FDE047"/>
<g filter="url(#filter0_d_3107_1090)">
<path d="M20.9001 28.1999V17.3999C20.9001 17.2342 20.7658 17.0999 20.6001 17.0999H18.1409C18.0817 17.0999 18.0238 17.1174 17.9745 17.1503L15.3337 18.9109C15.2502 18.9665 15.2001 19.0602 15.2001 19.1605V21.2894C15.2001 21.529 15.4671 21.6719 15.6665 21.539L18.0501 19.9499V28.1999C18.0501 28.3656 18.1844 28.4999 18.3501 28.4999H20.6001C20.7658 28.4999 20.9001 28.3656 20.9001 28.1999Z" fill="white"/>
</g>
<defs>
<filter id="filter0_d_3107_1090" x="11.2001" y="17.0999" width="13.7" height="19.4" filterUnits="userSpaceOnUse" color-interpolation-filters="sRGB">
<feFlood flood-opacity="0" result="BackgroundImageFix"/>
<feColorMatrix in="SourceAlpha" type="matrix" values="0 0 0 0 0 0 0 0 0 0 0 0 0 0 0 0 0 0 127 0" result="hardAlpha"/>
<feOffset dy="4"/>
<feGaussianBlur stdDeviation="2"/>
<feComposite in2="hardAlpha" operator="out"/>
<feColorMatrix type="matrix" values="0 0 0 0 0.403825 0 0 0 0 0.394248 0 0 0 0 0.394248 0 0 0 0.25 0"/>
<feBlend mode="normal" in2="BackgroundImageFix" result="effect1_dropShadow_3107_1090"/>
<feBlend mode="normal" in="SourceGraphic" in2="effect1_dropShadow_3107_1090" result="shape"/>
</filter>
</defs>
</svg>
