<svg width="14" height="14" viewBox="0 0 14 14" fill="none" xmlns="http://www.w3.org/2000/svg">
<g id="check-circle">
<path id="Vector" fill-rule="evenodd" clip-rule="evenodd" d="M6.99996 12.8334C8.54706 12.8334 10.0308 12.2188 11.1247 11.1248C12.2187 10.0308 12.8333 8.54712 12.8333 7.00002C12.8333 5.45292 12.2187 3.96919 11.1247 2.87523C10.0308 1.78127 8.54706 1.16669 6.99996 1.16669C5.45286 1.16669 3.96913 1.78127 2.87517 2.87523C1.78121 3.96919 1.16663 5.45292 1.16663 7.00002C1.16663 8.54712 1.78121 10.0308 2.87517 11.1248C3.96913 12.2188 5.45286 12.8334 6.99996 12.8334ZM9.70298 6.05721C9.8358 5.91969 9.9093 5.7355 9.90764 5.54431C9.90598 5.35313 9.82929 5.17024 9.6941 5.03505C9.5589 4.89986 9.37602 4.82317 9.18484 4.82151C8.99365 4.81985 8.80946 4.89334 8.67194 5.02617L6.27079 7.42731L5.32798 6.4845C5.19046 6.35168 5.00627 6.27818 4.81508 6.27984C4.6239 6.2815 4.44101 6.35819 4.30582 6.49338C4.17063 6.62858 4.09394 6.81146 4.09228 7.00265C4.09062 7.19383 4.16412 7.37802 4.29694 7.51554L5.75527 8.97387C5.89201 9.11057 6.07744 9.18736 6.27079 9.18736C6.46414 9.18736 6.64957 9.11057 6.78631 8.97387L9.70298 6.05721Z" fill="#3F3F46"/>
</g>
</svg>
