<svg width="24" height="24" viewBox="0 0 24 24" fill="none" xmlns="http://www.w3.org/2000/svg">
<path d="M10.7199 2.92162C11.1235 1.69279 12.8762 1.69279 13.2784 2.92162L14.7177 7.31388C14.8056 7.58138 14.9765 7.81446 15.2061 7.9798C15.4356 8.14514 15.7119 8.23429 15.9956 8.2345H20.6524C21.9559 8.2345 22.4966 9.88894 21.4434 10.6494L17.677 13.3633C17.447 13.5287 17.2758 13.7622 17.1878 14.0302C17.0998 14.2981 17.0997 14.5869 17.1873 14.8549L18.6266 19.2472C19.0302 20.476 17.6111 21.4994 16.5551 20.7389L12.7888 18.025C12.559 17.8596 12.2824 17.7705 11.9985 17.7705C11.7146 17.7705 11.438 17.8596 11.2082 18.025L7.44184 20.7389C6.38725 21.4994 4.96948 20.476 5.37167 19.2472L6.81097 14.8549C6.89864 14.5869 6.89848 14.2981 6.81052 14.0302C6.72256 13.7622 6.55132 13.5287 6.32134 13.3633L2.5563 10.6508C1.50306 9.89027 2.04515 8.23583 3.34724 8.23583H8.00276C8.28665 8.23591 8.56328 8.14689 8.79306 7.98153C9.02284 7.81616 9.19398 7.58293 9.28198 7.31522L10.7213 2.92295L10.7199 2.92162Z" fill="#FDE047"/>
</svg>
