<svg width="22" height="22" viewBox="0 0 22 22" fill="none" xmlns="http://www.w3.org/2000/svg">
<path d="M3.66669 14.6667L7.87052 10.4629C8.21432 10.1192 8.68055 9.92608 9.16669 9.92608C9.65282 9.92608 10.1191 10.1192 10.4629 10.4629L14.6667 14.6667M12.8334 12.8334L14.2872 11.3795C14.631 11.0358 15.0972 10.8427 15.5834 10.8427C16.0695 10.8427 16.5357 11.0358 16.8795 11.3795L18.3334 12.8334M12.8334 7.33335H12.8425M5.50002 18.3334H16.5C16.9863 18.3334 17.4526 18.1402 17.7964 17.7964C18.1402 17.4526 18.3334 16.9863 18.3334 16.5V5.50002C18.3334 5.01379 18.1402 4.54747 17.7964 4.20366C17.4526 3.85984 16.9863 3.66669 16.5 3.66669H5.50002C5.01379 3.66669 4.54747 3.85984 4.20366 4.20366C3.85984 4.54747 3.66669 5.01379 3.66669 5.50002V16.5C3.66669 16.9863 3.85984 17.4526 4.20366 17.7964C4.54747 18.1402 5.01379 18.3334 5.50002 18.3334Z" stroke="#1F2937" stroke-width="1.5" stroke-linecap="round" stroke-linejoin="round"/>
</svg>
