<svg width="26" height="26" viewBox="0 0 26 26" fill="none" xmlns="http://www.w3.org/2000/svg">
<path fill-rule="evenodd" clip-rule="evenodd" d="M26 13C26 16.4478 24.6304 19.7544 22.1924 22.1924C19.7544 24.6304 16.4478 26 13 26C9.55219 26 6.24558 24.6304 3.80761 22.1924C1.36964 19.7544 0 16.4478 0 13C0 9.55219 1.36964 6.24558 3.80761 3.80761C6.24558 1.36964 9.55219 0 13 0C16.4478 0 19.7544 1.36964 22.1924 3.80761C24.6304 6.24558 26 9.55219 26 13Z" fill="#93C5FD"/>
<path fill-rule="evenodd" clip-rule="evenodd" d="M23.8334 13.0003C23.8334 15.8735 22.692 18.629 20.6603 20.6607C18.6287 22.6923 15.8732 23.8337 13 23.8337C10.1268 23.8337 7.37134 22.6923 5.3397 20.6607C3.30805 18.629 2.16669 15.8735 2.16669 13.0003C2.16669 10.1271 3.30805 7.37165 5.3397 5.34C7.37134 3.30836 10.1268 2.16699 13 2.16699C15.8732 2.16699 18.6287 3.30836 20.6603 5.34C22.692 7.37165 23.8334 10.1271 23.8334 13.0003Z" fill="#DBEAFE"/>
</svg>
