<svg width="15" height="14" viewBox="0 0 15 14" fill="none" xmlns="http://www.w3.org/2000/svg">
<path d="M7.12003 4.66667V7M7.12003 9.33333H7.12596M12.46 7C12.46 7.68944 12.3219 8.37213 12.0535 9.00909C11.7852 9.64605 11.3918 10.2248 10.896 10.7123C10.4001 11.1998 9.81144 11.5865 9.16356 11.8504C8.51568 12.1142 7.82129 12.25 7.12003 12.25C6.41877 12.25 5.72438 12.1142 5.0765 11.8504C4.42862 11.5865 3.83994 11.1998 3.34408 10.7123C2.84821 10.2248 2.45487 9.64605 2.18651 9.00909C1.91815 8.37213 1.78003 7.68944 1.78003 7C1.78003 5.60761 2.34263 4.27226 3.34408 3.28769C4.34552 2.30312 5.70377 1.75 7.12003 1.75C8.53629 1.75 9.89454 2.30312 10.896 3.28769C11.8974 4.27226 12.46 5.60761 12.46 7Z" stroke="#F87171" stroke-linecap="round" stroke-linejoin="round"/>
</svg>
